<mxfile host="65bd71144e">
    <diagram id="xC3pityqD1mKo0jHFjP3" name="Page-1">
        <mxGraphModel dx="1796" dy="1434" grid="1" gridSize="10" guides="1" tooltips="1" connect="1" arrows="1" fold="1" page="0" pageScale="1" pageWidth="850" pageHeight="1100" background="none" math="0" shadow="0">
            <root>
                <mxCell id="0"/>
                <mxCell id="1" parent="0"/>
                <mxCell id="node1" value="&lt;p style=&quot;margin:0px;margin-top:4px;text-align:center;&quot;&gt;&lt;b&gt;ControllerValues&lt;/b&gt;&lt;/p&gt;&lt;hr size=&quot;1&quot;/&gt;&lt;p style=&quot;margin:0 0 0 4px;line-height:1.6;&quot;&gt;+ ControllerValues(): &lt;/p&gt;&lt;hr size=&quot;1&quot;/&gt;&lt;p style=&quot;margin:0 0 0 4px;line-height:1.6;&quot;&gt;+ GAME_FILE: String&lt;/p&gt;&lt;hr size=&quot;1&quot;/&gt;&lt;p style=&quot;margin:0 0 0 4px;line-height:1.6;&quot;&gt; GAME_FILE: String&lt;/p&gt;" style="verticalAlign=top;align=left;overflow=fill;fontSize=14;fontFamily=Helvetica;html=1;rounded=0;shadow=0;comic=0;labelBackgroundColor=none;strokeWidth=1;" parent="1" vertex="1">
                    <mxGeometry x="189" y="475" width="161" height="145" as="geometry"/>
                </mxCell>
                <mxCell id="node3" value="&lt;p style=&quot;margin:0px;margin-top:4px;text-align:center;&quot;&gt;&lt;b&gt;ConversationPaneController&lt;/b&gt;&lt;/p&gt;&lt;hr size=&quot;1&quot;/&gt;&lt;p style=&quot;margin:0 0 0 4px;line-height:1.6;&quot;&gt;+ ConversationPaneController(): &lt;/p&gt;&lt;hr size=&quot;1&quot;/&gt;&lt;p style=&quot;margin:0 0 0 4px;line-height:1.6;&quot;&gt;+ conversationPaneNumber: int&lt;br/&gt;~ currentConversationPane: ConversationPane&lt;/p&gt;&lt;hr size=&quot;1&quot;/&gt;&lt;p style=&quot;margin:0 0 0 4px;line-height:1.6;&quot;&gt;+ contents(): String[]&lt;br/&gt;+ menuAction(ActionEvent): void&lt;br/&gt;+ sceneClickedAction(MouseEvent): void&lt;br/&gt;+ passages(): String[]&lt;br/&gt;+ types(): String[]&lt;br/&gt;+ exitAction(ActionEvent): void&lt;br/&gt;+ choiceTwoAction(ActionEvent): void&lt;br/&gt;+ choiceOneAction(ActionEvent): void&lt;/p&gt;&lt;hr size=&quot;1&quot;/&gt;&lt;p style=&quot;margin:0 0 0 4px;line-height:1.6;&quot;&gt; textLines: String[]&lt;br/&gt; type: String&lt;br/&gt; currentConversationPane: ConversationPane&lt;br/&gt; conversationPaneNumber: int&lt;/p&gt;" style="verticalAlign=top;align=left;overflow=fill;fontSize=14;fontFamily=Helvetica;html=1;rounded=0;shadow=0;comic=0;labelBackgroundColor=none;strokeWidth=1;" parent="1" vertex="1">
                    <mxGeometry x="520" y="-15" width="281" height="415" as="geometry"/>
                </mxCell>
                <mxCell id="node0" value="&lt;p style=&quot;margin:0px;margin-top:4px;text-align:center;&quot;&gt;&lt;b&gt;FightPaneController&lt;/b&gt;&lt;/p&gt;&lt;hr size=&quot;1&quot;/&gt;&lt;p style=&quot;margin:0 0 0 4px;line-height:1.6;&quot;&gt;+ FightPaneController(): &lt;/p&gt;&lt;hr size=&quot;1&quot;/&gt;&lt;p style=&quot;margin:0 0 0 4px;line-height:1.6;&quot;&gt;+ currentFightPane: FightPane&lt;/p&gt;&lt;hr size=&quot;1&quot;/&gt;&lt;p style=&quot;margin:0 0 0 4px;line-height:1.6;&quot;&gt;+ healOneAction(ActionEvent): void&lt;br/&gt;+ menuAction(ActionEvent): void&lt;br/&gt;+ abilityOneAction(ActionEvent): void&lt;br/&gt;+ looseFight(): void&lt;br/&gt;+ healAction(ActionEvent): void&lt;br/&gt;+ playerAction(float, float): void&lt;br/&gt;+ abilityThreeAction(ActionEvent): void&lt;br/&gt;+ healTwoAction(ActionEvent): void&lt;br/&gt;+ abilityTwoAction(ActionEvent): void&lt;br/&gt;+ inventoryTwoAction(ActionEvent): void&lt;br/&gt;+ inventoryThreeAction(ActionEvent): void&lt;br/&gt;+ enemyAction(float, float): void&lt;br/&gt;+ emptyAction(ActionEvent): void&lt;br/&gt;+ setDefaultHealthValues(): void&lt;br/&gt;+ escapeTwoAction(ActionEvent): void&lt;br/&gt;+ inventoryOneAction(ActionEvent): void&lt;br/&gt;+ exitAction(ActionEvent): void&lt;br/&gt;+ escapeAction(ActionEvent): void&lt;br/&gt;+ fightAction(ActionEvent): void&lt;br/&gt;+ inventoryAction(ActionEvent): void&lt;br/&gt;+ winFight(): void&lt;br/&gt;+ backAction(ActionEvent): void&lt;/p&gt;&lt;hr size=&quot;1&quot;/&gt;&lt;p style=&quot;margin:0 0 0 4px;line-height:1.6;&quot;&gt; currentFightPane: FightPane&lt;/p&gt;" style="verticalAlign=top;align=left;overflow=fill;fontSize=14;fontFamily=Helvetica;html=1;rounded=0;shadow=0;comic=0;labelBackgroundColor=none;strokeWidth=1;" parent="1" vertex="1">
                    <mxGeometry x="-117" y="-15" width="261" height="645" as="geometry"/>
                </mxCell>
                <mxCell id="node2" value="&lt;p style=&quot;margin:0px;margin-top:4px;text-align:center;&quot;&gt;&lt;b&gt;GameController&lt;/b&gt;&lt;/p&gt;&lt;hr size=&quot;1&quot;/&gt;&lt;p style=&quot;margin:0 0 0 4px;line-height:1.6;&quot;&gt;+ GameController(): &lt;/p&gt;&lt;hr size=&quot;1&quot;/&gt;&lt;p style=&quot;margin:0 0 0 4px;line-height:1.6;&quot;&gt;+ currentPassage: Passage&lt;br/&gt;+ currentGame: Game&lt;/p&gt;&lt;hr size=&quot;1&quot;/&gt;&lt;p style=&quot;margin:0 0 0 4px;line-height:1.6;&quot;&gt;+ delay(long, Runnable): void&lt;/p&gt;&lt;hr size=&quot;1&quot;/&gt;&lt;p style=&quot;margin:0 0 0 4px;line-height:1.6;&quot;&gt; currentPassage: Passage&lt;br/&gt; newGame: Game&lt;br/&gt; currentGame: Game&lt;/p&gt;" style="verticalAlign=top;align=left;overflow=fill;fontSize=14;fontFamily=Helvetica;html=1;rounded=0;shadow=0;comic=0;labelBackgroundColor=none;strokeWidth=1;" parent="1" vertex="1">
                    <mxGeometry x="-117" y="655" width="191" height="240" as="geometry"/>
                </mxCell>
                <mxCell id="node5" value="&lt;p style=&quot;margin:0px;margin-top:4px;text-align:center;&quot;&gt;&lt;b&gt;SoundController&lt;/b&gt;&lt;/p&gt;&lt;hr size=&quot;1&quot;/&gt;&lt;p style=&quot;margin:0 0 0 4px;line-height:1.6;&quot;&gt;+ SoundController(): &lt;/p&gt;&lt;hr size=&quot;1&quot;/&gt;&lt;p style=&quot;margin:0 0 0 4px;line-height:1.6;&quot;&gt;+ sound: MediaPlayer&lt;/p&gt;&lt;hr size=&quot;1&quot;/&gt;&lt;p style=&quot;margin:0 0 0 4px;line-height:1.6;&quot;&gt;+ playSound(String): void&lt;br/&gt;+ stopSound(): void&lt;/p&gt;&lt;hr size=&quot;1&quot;/&gt;&lt;p style=&quot;margin:0 0 0 4px;line-height:1.6;&quot;&gt; applicationVolume: double&lt;br/&gt; sound: MediaPlayer&lt;/p&gt;" style="verticalAlign=top;align=left;overflow=fill;fontSize=14;fontFamily=Helvetica;html=1;rounded=0;shadow=0;comic=0;labelBackgroundColor=none;strokeWidth=1;" parent="1" vertex="1">
                    <mxGeometry x="520" y="440" width="189" height="215" as="geometry"/>
                </mxCell>
                <mxCell id="node4" value="&lt;p style=&quot;margin:0px;margin-top:4px;text-align:center;&quot;&gt;&lt;b&gt;StartMenuController&lt;/b&gt;&lt;/p&gt;&lt;hr size=&quot;1&quot;/&gt;&lt;p style=&quot;margin:0 0 0 4px;line-height:1.6;&quot;&gt;+ StartMenuController(): &lt;/p&gt;&lt;hr size=&quot;1&quot;/&gt;&lt;p style=&quot;margin:0 0 0 4px;line-height:1.6;&quot;&gt;+ currentContinuePane: ContinuePane&lt;br/&gt;+ currentCustomGamePane: CustomGamePane&lt;/p&gt;&lt;hr size=&quot;1&quot;/&gt;&lt;p style=&quot;margin:0 0 0 4px;line-height:1.6;&quot;&gt;+ newGameAction(ActionEvent): void&lt;br/&gt;+ startAction(ActionEvent): void&lt;br/&gt;+ settingsAction(MouseEvent): void&lt;br/&gt;+ customAction(ActionEvent): void&lt;br/&gt;+ importFile(ActionEvent): void&lt;br/&gt;+ deleteAction(ActionEvent): void&lt;br/&gt;+ continueAction(ActionEvent): void&lt;br/&gt;+ informationAction(MouseEvent): void&lt;br/&gt;+ linkAction(MouseEvent): void&lt;br/&gt;+ backAction(ActionEvent): void&lt;br/&gt;+ startCustomAction(ActionEvent): void&lt;/p&gt;&lt;hr size=&quot;1&quot;/&gt;&lt;p style=&quot;margin:0 0 0 4px;line-height:1.6;&quot;&gt; curreContinuePane: ContinuePane&lt;br/&gt; currentCustomGamePane: CustomGamePane&lt;br/&gt; currentContinuePane: ContinuePane&lt;/p&gt;" style="verticalAlign=top;align=left;overflow=fill;fontSize=14;fontFamily=Helvetica;html=1;rounded=0;shadow=0;comic=0;labelBackgroundColor=none;strokeWidth=1;" parent="1" vertex="1">
                    <mxGeometry x="189" y="-15" width="286" height="465" as="geometry"/>
                </mxCell>
            </root>
        </mxGraphModel>
    </diagram>
</mxfile>